<mxfile host="app.diagrams.net" agent="Mozilla/5.0 (Windows NT 10.0; Win64; x64; rv:128.0) Gecko/20100101 Firefox/128.0" version="24.7.4">
  <diagram id="C5RBs43oDa-KdzZeNtuy" name="Page-1">
    <mxGraphModel dx="2127" dy="1443" grid="1" gridSize="10" guides="1" tooltips="1" connect="1" arrows="1" fold="1" page="1" pageScale="1" pageWidth="827" pageHeight="1169" math="0" shadow="0">
      <root>
        <mxCell id="WIyWlLk6GJQsqaUBKTNV-0" />
        <mxCell id="WIyWlLk6GJQsqaUBKTNV-1" parent="WIyWlLk6GJQsqaUBKTNV-0" />
        <mxCell id="-43CJR_Fq_cPjuhIfpJS-17" value="" style="edgeStyle=orthogonalEdgeStyle;rounded=0;orthogonalLoop=1;jettySize=auto;html=1;" edge="1" parent="WIyWlLk6GJQsqaUBKTNV-1" source="-43CJR_Fq_cPjuhIfpJS-9" target="-43CJR_Fq_cPjuhIfpJS-16">
          <mxGeometry relative="1" as="geometry" />
        </mxCell>
        <mxCell id="-43CJR_Fq_cPjuhIfpJS-9" value="initialize cartExists as false" style="rounded=0;whiteSpace=wrap;html=1;" vertex="1" parent="WIyWlLk6GJQsqaUBKTNV-1">
          <mxGeometry x="70" y="130" width="150" height="50" as="geometry" />
        </mxCell>
        <mxCell id="-43CJR_Fq_cPjuhIfpJS-10" style="edgeStyle=orthogonalEdgeStyle;rounded=0;orthogonalLoop=1;jettySize=auto;html=1;entryX=0.5;entryY=0;entryDx=0;entryDy=0;exitX=0.5;exitY=1;exitDx=0;exitDy=0;exitPerimeter=0;" edge="1" parent="WIyWlLk6GJQsqaUBKTNV-1" source="-43CJR_Fq_cPjuhIfpJS-11" target="-43CJR_Fq_cPjuhIfpJS-9">
          <mxGeometry relative="1" as="geometry">
            <mxPoint x="145" y="90" as="sourcePoint" />
          </mxGeometry>
        </mxCell>
        <mxCell id="-43CJR_Fq_cPjuhIfpJS-11" value="plus_button" style="strokeWidth=2;html=1;shape=mxgraph.flowchart.terminator;whiteSpace=wrap;" vertex="1" parent="WIyWlLk6GJQsqaUBKTNV-1">
          <mxGeometry x="95" y="20" width="100" height="60" as="geometry" />
        </mxCell>
        <mxCell id="-43CJR_Fq_cPjuhIfpJS-12" value="end" style="strokeWidth=2;html=1;shape=mxgraph.flowchart.terminator;whiteSpace=wrap;" vertex="1" parent="WIyWlLk6GJQsqaUBKTNV-1">
          <mxGeometry x="95" y="1290" width="100" height="60" as="geometry" />
        </mxCell>
        <mxCell id="-43CJR_Fq_cPjuhIfpJS-20" value="" style="edgeStyle=orthogonalEdgeStyle;rounded=0;orthogonalLoop=1;jettySize=auto;html=1;" edge="1" parent="WIyWlLk6GJQsqaUBKTNV-1" source="-43CJR_Fq_cPjuhIfpJS-16" target="-43CJR_Fq_cPjuhIfpJS-19">
          <mxGeometry relative="1" as="geometry" />
        </mxCell>
        <mxCell id="-43CJR_Fq_cPjuhIfpJS-16" value="&lt;div&gt;cat = 0&lt;/div&gt;&lt;div&gt;item = 0&lt;br&gt;&lt;/div&gt;" style="whiteSpace=wrap;html=1;rounded=0;" vertex="1" parent="WIyWlLk6GJQsqaUBKTNV-1">
          <mxGeometry x="85" y="210" width="120" height="60" as="geometry" />
        </mxCell>
        <mxCell id="-43CJR_Fq_cPjuhIfpJS-22" value="" style="edgeStyle=orthogonalEdgeStyle;rounded=0;orthogonalLoop=1;jettySize=auto;html=1;" edge="1" parent="WIyWlLk6GJQsqaUBKTNV-1" source="-43CJR_Fq_cPjuhIfpJS-19" target="-43CJR_Fq_cPjuhIfpJS-21">
          <mxGeometry relative="1" as="geometry" />
        </mxCell>
        <mxCell id="-43CJR_Fq_cPjuhIfpJS-23" value="yes" style="edgeLabel;html=1;align=center;verticalAlign=middle;resizable=0;points=[];" vertex="1" connectable="0" parent="-43CJR_Fq_cPjuhIfpJS-22">
          <mxGeometry x="-0.5" y="-3" relative="1" as="geometry">
            <mxPoint as="offset" />
          </mxGeometry>
        </mxCell>
        <mxCell id="-43CJR_Fq_cPjuhIfpJS-34" style="edgeStyle=orthogonalEdgeStyle;rounded=0;orthogonalLoop=1;jettySize=auto;html=1;" edge="1" parent="WIyWlLk6GJQsqaUBKTNV-1" source="-43CJR_Fq_cPjuhIfpJS-19">
          <mxGeometry relative="1" as="geometry">
            <mxPoint x="145" y="850" as="targetPoint" />
            <Array as="points">
              <mxPoint x="-110" y="340" />
              <mxPoint x="-110" y="850" />
            </Array>
          </mxGeometry>
        </mxCell>
        <mxCell id="-43CJR_Fq_cPjuhIfpJS-19" value="is cat in cart" style="rhombus;whiteSpace=wrap;html=1;rounded=0;" vertex="1" parent="WIyWlLk6GJQsqaUBKTNV-1">
          <mxGeometry x="90" y="300" width="110" height="80" as="geometry" />
        </mxCell>
        <mxCell id="-43CJR_Fq_cPjuhIfpJS-25" value="no" style="edgeStyle=orthogonalEdgeStyle;rounded=0;orthogonalLoop=1;jettySize=auto;html=1;" edge="1" parent="WIyWlLk6GJQsqaUBKTNV-1" source="-43CJR_Fq_cPjuhIfpJS-21" target="-43CJR_Fq_cPjuhIfpJS-24">
          <mxGeometry relative="1" as="geometry" />
        </mxCell>
        <mxCell id="-43CJR_Fq_cPjuhIfpJS-28" value="yes" style="edgeStyle=orthogonalEdgeStyle;rounded=0;orthogonalLoop=1;jettySize=auto;html=1;" edge="1" parent="WIyWlLk6GJQsqaUBKTNV-1" source="-43CJR_Fq_cPjuhIfpJS-21" target="-43CJR_Fq_cPjuhIfpJS-27">
          <mxGeometry relative="1" as="geometry" />
        </mxCell>
        <mxCell id="-43CJR_Fq_cPjuhIfpJS-21" value="is item in cat" style="rhombus;whiteSpace=wrap;html=1;rounded=0;" vertex="1" parent="WIyWlLk6GJQsqaUBKTNV-1">
          <mxGeometry x="90" y="420" width="110" height="80" as="geometry" />
        </mxCell>
        <mxCell id="-43CJR_Fq_cPjuhIfpJS-26" style="edgeStyle=orthogonalEdgeStyle;rounded=0;orthogonalLoop=1;jettySize=auto;html=1;exitX=0.5;exitY=0;exitDx=0;exitDy=0;" edge="1" parent="WIyWlLk6GJQsqaUBKTNV-1" source="-43CJR_Fq_cPjuhIfpJS-24">
          <mxGeometry relative="1" as="geometry">
            <mxPoint x="140" y="280" as="targetPoint" />
            <mxPoint x="350.03999999999996" y="430" as="sourcePoint" />
            <Array as="points">
              <mxPoint x="335" y="280" />
            </Array>
          </mxGeometry>
        </mxCell>
        <mxCell id="-43CJR_Fq_cPjuhIfpJS-24" value="increment cart by 1" style="whiteSpace=wrap;html=1;rounded=0;" vertex="1" parent="WIyWlLk6GJQsqaUBKTNV-1">
          <mxGeometry x="275" y="430" width="120" height="60" as="geometry" />
        </mxCell>
        <mxCell id="-43CJR_Fq_cPjuhIfpJS-30" value="no" style="edgeStyle=orthogonalEdgeStyle;rounded=0;orthogonalLoop=1;jettySize=auto;html=1;" edge="1" parent="WIyWlLk6GJQsqaUBKTNV-1" source="-43CJR_Fq_cPjuhIfpJS-27" target="-43CJR_Fq_cPjuhIfpJS-29">
          <mxGeometry relative="1" as="geometry" />
        </mxCell>
        <mxCell id="-43CJR_Fq_cPjuhIfpJS-33" value="yes" style="edgeStyle=orthogonalEdgeStyle;rounded=0;orthogonalLoop=1;jettySize=auto;html=1;" edge="1" parent="WIyWlLk6GJQsqaUBKTNV-1" source="-43CJR_Fq_cPjuhIfpJS-27" target="-43CJR_Fq_cPjuhIfpJS-32">
          <mxGeometry relative="1" as="geometry" />
        </mxCell>
        <mxCell id="-43CJR_Fq_cPjuhIfpJS-27" value="is the value of item more than or equal to 1" style="rhombus;whiteSpace=wrap;html=1;rounded=0;" vertex="1" parent="WIyWlLk6GJQsqaUBKTNV-1">
          <mxGeometry x="70" y="540" width="150" height="100" as="geometry" />
        </mxCell>
        <mxCell id="-43CJR_Fq_cPjuhIfpJS-31" style="edgeStyle=orthogonalEdgeStyle;rounded=0;orthogonalLoop=1;jettySize=auto;html=1;" edge="1" parent="WIyWlLk6GJQsqaUBKTNV-1" source="-43CJR_Fq_cPjuhIfpJS-29">
          <mxGeometry relative="1" as="geometry">
            <mxPoint x="150" y="400" as="targetPoint" />
            <Array as="points">
              <mxPoint x="-30" y="400" />
            </Array>
          </mxGeometry>
        </mxCell>
        <mxCell id="-43CJR_Fq_cPjuhIfpJS-29" value="increment item by 1" style="whiteSpace=wrap;html=1;rounded=0;" vertex="1" parent="WIyWlLk6GJQsqaUBKTNV-1">
          <mxGeometry x="-90" y="560" width="120" height="60" as="geometry" />
        </mxCell>
        <mxCell id="-43CJR_Fq_cPjuhIfpJS-36" value="" style="edgeStyle=orthogonalEdgeStyle;rounded=0;orthogonalLoop=1;jettySize=auto;html=1;" edge="1" parent="WIyWlLk6GJQsqaUBKTNV-1" source="-43CJR_Fq_cPjuhIfpJS-32" target="-43CJR_Fq_cPjuhIfpJS-35">
          <mxGeometry relative="1" as="geometry" />
        </mxCell>
        <mxCell id="-43CJR_Fq_cPjuhIfpJS-32" value="set cartExists to True" style="whiteSpace=wrap;html=1;rounded=0;" vertex="1" parent="WIyWlLk6GJQsqaUBKTNV-1">
          <mxGeometry x="85" y="690" width="120" height="60" as="geometry" />
        </mxCell>
        <mxCell id="-43CJR_Fq_cPjuhIfpJS-40" value="yes" style="edgeStyle=orthogonalEdgeStyle;rounded=0;orthogonalLoop=1;jettySize=auto;html=1;" edge="1" parent="WIyWlLk6GJQsqaUBKTNV-1" source="-43CJR_Fq_cPjuhIfpJS-35" target="-43CJR_Fq_cPjuhIfpJS-39">
          <mxGeometry relative="1" as="geometry" />
        </mxCell>
        <mxCell id="-43CJR_Fq_cPjuhIfpJS-47" value="no" style="edgeStyle=orthogonalEdgeStyle;rounded=0;orthogonalLoop=1;jettySize=auto;html=1;" edge="1" parent="WIyWlLk6GJQsqaUBKTNV-1" source="-43CJR_Fq_cPjuhIfpJS-35" target="-43CJR_Fq_cPjuhIfpJS-46">
          <mxGeometry relative="1" as="geometry" />
        </mxCell>
        <mxCell id="-43CJR_Fq_cPjuhIfpJS-35" value="cartExists?" style="rhombus;whiteSpace=wrap;html=1;rounded=0;" vertex="1" parent="WIyWlLk6GJQsqaUBKTNV-1">
          <mxGeometry x="90" y="880" width="110" height="80" as="geometry" />
        </mxCell>
        <mxCell id="-43CJR_Fq_cPjuhIfpJS-42" value="" style="edgeStyle=orthogonalEdgeStyle;rounded=0;orthogonalLoop=1;jettySize=auto;html=1;" edge="1" parent="WIyWlLk6GJQsqaUBKTNV-1" source="-43CJR_Fq_cPjuhIfpJS-39" target="-43CJR_Fq_cPjuhIfpJS-41">
          <mxGeometry relative="1" as="geometry" />
        </mxCell>
        <mxCell id="-43CJR_Fq_cPjuhIfpJS-39" value="hide masterFrame" style="shape=parallelogram;perimeter=parallelogramPerimeter;whiteSpace=wrap;html=1;fixedSize=1;rounded=0;" vertex="1" parent="WIyWlLk6GJQsqaUBKTNV-1">
          <mxGeometry x="85" y="990" width="120" height="60" as="geometry" />
        </mxCell>
        <mxCell id="-43CJR_Fq_cPjuhIfpJS-44" value="" style="edgeStyle=orthogonalEdgeStyle;rounded=0;orthogonalLoop=1;jettySize=auto;html=1;" edge="1" parent="WIyWlLk6GJQsqaUBKTNV-1" source="-43CJR_Fq_cPjuhIfpJS-41" target="-43CJR_Fq_cPjuhIfpJS-43">
          <mxGeometry relative="1" as="geometry" />
        </mxCell>
        <mxCell id="-43CJR_Fq_cPjuhIfpJS-41" value="display checkoutFrame" style="shape=parallelogram;perimeter=parallelogramPerimeter;whiteSpace=wrap;html=1;fixedSize=1;rounded=0;" vertex="1" parent="WIyWlLk6GJQsqaUBKTNV-1">
          <mxGeometry x="85" y="1080" width="120" height="60" as="geometry" />
        </mxCell>
        <mxCell id="-43CJR_Fq_cPjuhIfpJS-45" value="" style="edgeStyle=orthogonalEdgeStyle;rounded=0;orthogonalLoop=1;jettySize=auto;html=1;" edge="1" parent="WIyWlLk6GJQsqaUBKTNV-1" source="-43CJR_Fq_cPjuhIfpJS-43" target="-43CJR_Fq_cPjuhIfpJS-12">
          <mxGeometry relative="1" as="geometry" />
        </mxCell>
        <mxCell id="-43CJR_Fq_cPjuhIfpJS-43" value="tell user they are checking out" style="shape=parallelogram;perimeter=parallelogramPerimeter;whiteSpace=wrap;html=1;fixedSize=1;rounded=0;" vertex="1" parent="WIyWlLk6GJQsqaUBKTNV-1">
          <mxGeometry x="85" y="1169" width="120" height="60" as="geometry" />
        </mxCell>
        <mxCell id="-43CJR_Fq_cPjuhIfpJS-49" value="" style="edgeStyle=orthogonalEdgeStyle;rounded=0;orthogonalLoop=1;jettySize=auto;html=1;" edge="1" parent="WIyWlLk6GJQsqaUBKTNV-1" source="-43CJR_Fq_cPjuhIfpJS-46" target="-43CJR_Fq_cPjuhIfpJS-48">
          <mxGeometry relative="1" as="geometry" />
        </mxCell>
        <mxCell id="-43CJR_Fq_cPjuhIfpJS-46" value="&lt;div&gt;make messageBox&lt;/div&gt;&lt;div&gt;to inform user that&lt;/div&gt;&lt;div&gt;there is no items in cart&lt;br&gt;&lt;/div&gt;" style="shape=parallelogram;perimeter=parallelogramPerimeter;whiteSpace=wrap;html=1;fixedSize=1;rounded=0;" vertex="1" parent="WIyWlLk6GJQsqaUBKTNV-1">
          <mxGeometry x="260" y="890" width="165" height="60" as="geometry" />
        </mxCell>
        <mxCell id="-43CJR_Fq_cPjuhIfpJS-50" style="edgeStyle=orthogonalEdgeStyle;rounded=0;orthogonalLoop=1;jettySize=auto;html=1;" edge="1" parent="WIyWlLk6GJQsqaUBKTNV-1" source="-43CJR_Fq_cPjuhIfpJS-48">
          <mxGeometry relative="1" as="geometry">
            <mxPoint x="150" y="1250" as="targetPoint" />
            <Array as="points">
              <mxPoint x="342" y="1250" />
            </Array>
          </mxGeometry>
        </mxCell>
        <mxCell id="-43CJR_Fq_cPjuhIfpJS-48" value="&lt;div&gt;tell user no items&amp;nbsp;&lt;/div&gt;&lt;div&gt;in cart&lt;/div&gt;" style="shape=parallelogram;perimeter=parallelogramPerimeter;whiteSpace=wrap;html=1;fixedSize=1;rounded=0;" vertex="1" parent="WIyWlLk6GJQsqaUBKTNV-1">
          <mxGeometry x="282.5" y="1030" width="120" height="60" as="geometry" />
        </mxCell>
      </root>
    </mxGraphModel>
  </diagram>
</mxfile>
